<?xml version="1.0" encoding="utf-8"?>
<!-- Generator: Adobe Illustrator 24.2.1, SVG Export Plug-In . SVG Version: 6.00 Build 0)  -->
<svg version="1.1" id="Layer_1" xmlns="http://www.w3.org/2000/svg" xmlns:xlink="http://www.w3.org/1999/xlink" x="0px" y="0px"
	 width="1000px" height="1000px" viewBox="0 0 1000 1000" style="enable-background:new 0 0 1000 1000;" xml:space="preserve">
<g>
	<path d="M285.8,277.9c-88.5-31.9-441,136.5-78.5,210.5C-14.3,401.3,164.2,291.1,285.8,277.9z"/>
	<path d="M285.8,277.9c-85.2,40-215.3,408.3,93.3,204.4C160.9,577.4,209.1,373.2,285.8,277.9z"/>
	<path d="M285.8,277.9c-31.9,88.5,136.5,441,210.5,78.5C409.2,578,298.9,399.5,285.8,277.9z"/>
	<path d="M285.8,277.9c40,85.2,408.3,215.3,204.4-93.3C585.2,402.8,381.1,354.6,285.8,277.9z"/>
	<path d="M285.8,277.9c88.5,31.9,441-136.5,78.5-210.5C585.8,154.5,407.4,264.8,285.8,277.9z"/>
	<path d="M285.8,277.9c85.2-40,215.3-408.3-93.3-204.4C410.7-21.5,362.5,182.6,285.8,277.9z"/>
	<path d="M285.8,277.9c31.9-88.5-136.5-441-210.5-78.5C162.4-22.1,272.6,156.3,285.8,277.9z"/>
	<path d="M285.8,277.9c-40-85.2-408.3-215.3-204.4,93.3C-13.7,153,190.5,201.2,285.8,277.9z"/>
</g>
</svg>
