<svg xmlns="http://www.w3.org/2000/svg" viewBox="0 0 64 80" x="0px" y="0px"><title>cloning-clone-human-technology-medical-future-science</title><g data-name="23-cloning"><path d="M58.316,26.052,53,24.28V21a21,21,0,0,0-42,0v3.28L5.684,26.052A1,1,0,0,0,5,27V39a1,1,0,0,0,.684.948L11,41.72V58a3,3,0,0,0,0,6H53a3,3,0,0,0,0-6V41.72l5.316-1.772A1,1,0,0,0,59,39V27A1,1,0,0,0,58.316,26.052ZM57,27.721V30H53V26.388ZM57,34H53V32h4ZM13,21a19,19,0,0,1,38,0V42.336a13.39,13.39,0,0,0-8,12.208V58H21V54.544a13.39,13.39,0,0,0-8-12.208V21ZM7,32h4v2H7Zm4-5.612V30H7V27.721ZM7,38.279V36h4v3.612Zm6,6.269a11.39,11.39,0,0,1,6,10V58H13ZM54,61a1,1,0,0,1-1,1H11a1,1,0,0,1,0-2H53A1,1,0,0,1,54,61Zm-9-3V54.544a11.39,11.39,0,0,1,6-10V58Zm8-18.388V36h4v2.279Z"/><path d="M20,33h.068a2.594,2.594,0,0,0,5.1-.271l.813-6.506.969-2.908a8.6,8.6,0,0,1,.051.921v1.24a8.63,8.63,0,0,1-.046.88L25.708,31.8a18.6,18.6,0,0,0-.341,6.359l1.514,12.713a10.437,10.437,0,0,1-.524,3.9A1.7,1.7,0,0,0,27.972,57h3.056A1.7,1.7,0,0,0,32,56.694a1.7,1.7,0,0,0,.972.306h3.056a1.7,1.7,0,0,0,1.614-2.237,10.4,10.4,0,0,1-.528-3.832l1.519-12.776a18.612,18.612,0,0,0-.341-6.36l-1.246-5.439a8.63,8.63,0,0,1-.046-.88v-1.24a8.6,8.6,0,0,1,.051-.921l.969,2.908.813,6.506a2.594,2.594,0,0,0,5.1.271H44a1,1,0,0,0,1-1V30.8a2.945,2.945,0,0,0-.856-2.068,1,1,0,0,1-.272-.582A51.024,51.024,0,0,0,41,17.8a5.9,5.9,0,0,0-4.722-5.565,1.239,1.239,0,0,1-.872-.666l-.2-.4A4.838,4.838,0,0,0,36,8.5,4.277,4.277,0,0,0,32,4a4.277,4.277,0,0,0-4,4.5,4.835,4.835,0,0,0,.8,2.669l-.2.4a1.24,1.24,0,0,1-.871.665A5.9,5.9,0,0,0,23,17.8a51.174,51.174,0,0,0-2.888,10.426.922.922,0,0,1-.259.5A2.945,2.945,0,0,0,19,30.8V32A1,1,0,0,0,20,33Zm12.686,8.317-.555,9.437q-.039.649-.131,1.292-.093-.644-.131-1.292l-.555-9.437A23.275,23.275,0,0,1,32,34.223,23.275,23.275,0,0,1,32.686,41.317ZM32,6a2.3,2.3,0,0,1,2,2.5A2.3,2.3,0,0,1,32,11a2.3,2.3,0,0,1-2-2.5A2.3,2.3,0,0,1,32,6ZM21,30.8a.929.929,0,0,1,.271-.653,2.983,2.983,0,0,0,.83-1.668,48.908,48.908,0,0,1,2.828-10.1A1,1,0,0,0,25,18a3.891,3.891,0,0,1,3.119-3.8,3.215,3.215,0,0,0,2.2-1.628,3.492,3.492,0,0,0,3.365,0,3.215,3.215,0,0,0,2.2,1.628A3.891,3.891,0,0,1,39,18a1,1,0,0,0,.071.371,49.06,49.06,0,0,1,2.841,10.187,2.918,2.918,0,0,0,.817,1.586A.929.929,0,0,1,43,30.8V31a1,1,0,0,0-1,1v.406a.594.594,0,0,1-1.183.074l-.825-6.6a.906.906,0,0,0-.044-.192l-2-6a1,1,0,0,0-1.843-.131A10.536,10.536,0,0,0,35,24.236v1.24a10.643,10.643,0,0,0,.063,1.155.908.908,0,0,0,.02.114l1.26,5.5a16.606,16.606,0,0,1,.3,5.678L35.123,50.757A12.413,12.413,0,0,0,35.62,55H33.382a17.609,17.609,0,0,0,.745-4.129l.555-9.436a25.3,25.3,0,0,0-1.753-10.806,1,1,0,0,0-1.858,0,25.3,25.3,0,0,0-1.753,10.806l.555,9.436A17.59,17.59,0,0,0,30.618,55H28.38a12.49,12.49,0,0,0,.492-4.306L27.354,37.919a16.6,16.6,0,0,1,.3-5.677l1.26-5.5a.908.908,0,0,0,.02-.114A10.643,10.643,0,0,0,29,25.476v-1.24A10.536,10.536,0,0,0,27.9,19.553a1,1,0,0,0-1.843.131l-2,6a.906.906,0,0,0-.044.192l-.825,6.6A.594.594,0,0,1,22,32.406V32a1,1,0,0,0-1-1Z"/><rect x="30" y="17" width="4" height="2"/><rect x="30" y="20" width="4" height="2"/><rect x="30" y="23" width="4" height="2"/></g><text x="0" y="79" fill="#000000" font-size="5px" font-weight="bold" font-family="'Helvetica Neue', Helvetica, Arial-Unicode, Arial, Sans-serif">Created by VINZENCE STUDIO</text><text x="0" y="84" fill="#000000" font-size="5px" font-weight="bold" font-family="'Helvetica Neue', Helvetica, Arial-Unicode, Arial, Sans-serif">from the Noun Project</text></svg>