<?xml version="1.0" encoding="utf-8"?><svg version="1.1" id="Layer_1" xmlns="http://www.w3.org/2000/svg" xmlns:xlink="http://www.w3.org/1999/xlink" x="0px" y="0px" viewBox="0 0 106.61 122.88" style="enable-background:new 0 0 106.61 122.88" xml:space="preserve"><g><path d="M21.56,91.1c0.92-0.45,2.04-0.06,2.48,0.87c0.45,0.93,0.06,2.04-0.87,2.48c-1.63,0.79-3.47,1.04-5.53,0.83 c-1.11-0.12-2.29-0.37-3.52-0.75c0.05,0.48,0.1,0.95,0.16,1.43c0.18,1.34,0.42,2.72,0.73,4.13c0.11,0.49,0.01,0.98-0.23,1.38 c-1.04,2.11-1.57,3.87-1.67,5.33c-0.1,1.52,0.31,2.66,1.11,3.48c0.89,0.9,2.29,1.5,4.06,1.84c2.82,0.53,6.44,0.37,10.37-0.34 c3.75-0.67,7.97-1.76,11.85-3.26c3.15-1.22,6.07-2.72,8.3-4.5c2.18-1.74,3.18-4.59,4.03-7.03c0.18-0.51,0.35-0.99,0.43-1.2 l0.25-0.67c1.07-2.94,2.93-8.05,5.34-9.91c0.81-0.63,1.98-0.48,2.61,0.34c0.63,0.81,0.48,1.98-0.34,2.61 c-1.56,1.2-3.18,5.66-4.12,8.24c-0.19,0.53-0.15,0.43-0.25,0.69c-0.2,0.54-0.31,0.84-0.41,1.14c-1.02,2.91-2.21,6.31-5.23,8.72 c-2.53,2.02-5.78,3.7-9.27,5.05c-0.79,0.31-1.6,0.6-2.41,0.87c0.03,1.22-0.01,2.43-0.13,3.65c-0.16,1.7-0.47,3.37-0.91,5 c-0.27,0.99-1.29,1.58-2.28,1.32c-0.99-0.27-1.58-1.29-1.32-2.28c0.39-1.47,0.67-2.93,0.81-4.39c0.07-0.72,0.11-1.44,0.12-2.17 c-2.19,0.6-4.37,1.08-6.41,1.45c-4.37,0.78-8.44,0.96-11.71,0.34c-2.5-0.47-4.57-1.41-6.03-2.88c-1.54-1.57-2.34-3.65-2.17-6.32 c0.12-1.81,0.7-3.91,1.84-6.3c-0.25-1.23-0.47-2.5-0.64-3.82c-0.19-1.47-0.32-2.95-0.38-4.45c-0.01-0.05-0.01-0.11-0.01-0.16 c-0.01-0.06-0.02-0.13-0.03-0.19c-0.27-2.81-0.3-5.55-0.34-8.32l-0.01-0.64l-4.3-0.25l-0.05,0c-1.12-0.04-2.13-0.37-2.97-0.92 c-0.82-0.53-1.47-1.27-1.9-2.15C0.2,78.49-0.02,77.51,0,76.43c0.03-1.49,0.53-3.15,1.62-4.85l4.6-9.41 c2.26-4.61,2.23-5.22,2.14-7.64c-0.04-1.09-0.1-2.48-0.03-4.57c0.08-2.49,0.36-4.87,0.9-7.1c0.38-1.58,0.89-3.08,1.55-4.5 l-8.37-3.65c-0.94-0.41-1.37-1.51-0.96-2.45c0.06-0.13,0.13-0.25,0.2-0.36l0,0c20-27.26,42.59-34.76,61.7-31 c11.16,2.2,21.11,8.26,28.63,16.5c7.52,8.22,12.63,18.62,14.15,29.51c2.49,17.91-4.7,37.09-26.83,50.07 c-0.19,0.11-0.39,0.19-0.6,0.22c0.01,2.72,0.18,5.35,0.49,7.91c0.62,5.06,1.8,9.81,3.48,14.27c0.36,0.96-0.12,2.03-1.09,2.4 c-0.96,0.36-2.03-0.12-2.4-1.09c-1.79-4.75-3.05-9.78-3.7-15.13c-0.65-5.33-0.7-10.99-0.08-17.03c0.1-1.02,1.02-1.77,2.04-1.66 c1.02,0.1,1.77,1.02,1.66,2.04c-0.14,1.36-0.24,2.7-0.31,4.03c19.53-12.06,25.89-29.37,23.65-45.52 c-1.41-10.14-6.18-19.84-13.2-27.51C82.25,12.25,73,6.61,62.64,4.56C45.27,1.14,24.67,7.89,6.05,32.24l7.95,3.47 c0.11,0.04,0.22,0.09,0.32,0.15c0.88,0.53,1.16,1.68,0.63,2.56c-0.97,1.61-1.66,3.39-2.12,5.31c-0.48,1.98-0.72,4.11-0.8,6.35 c-0.06,1.95-0.01,3.28,0.03,4.31c0.13,3.16,0.16,3.95-2.51,9.42l-4.62,9.44c-0.04,0.09-0.09,0.19-0.15,0.28 c-0.73,1.12-1.06,2.13-1.08,2.98c-0.01,0.46,0.07,0.86,0.23,1.18c0.14,0.29,0.34,0.52,0.59,0.68c0.29,0.19,0.65,0.3,1.06,0.32 c0.05,0,0.1,0,0.15,0l5.33,0.31c0.17-0.06,0.35-0.09,0.54-0.09c0.06,0,0.13,0,0.19,0.01l0-0.01l4.91,0.42 c1.03,0.08,1.79,0.98,1.7,2.01c-0.08,1.03-0.98,1.79-2.01,1.7l-0.1-0.01l-2.77-0.16l0.01,0.38c0.03,2.42,0.06,4.81,0.26,7.23 c1.55,0.58,2.96,0.95,4.21,1.08C19.4,91.72,20.58,91.57,21.56,91.1L21.56,91.1L21.56,91.1z M56.39,32.42 c0.92-1.43,2.14-2.2,3.42-2.47c1.22-0.25,2.46-0.03,3.53,0.51c1.06,0.53,1.96,1.39,2.52,2.42c0.21,0.39,0.37,0.8,0.47,1.22 c0.62-0.01,1.26,0.09,1.88,0.3c1.17,0.4,2.3,1.17,3.17,2.2c0.88,1.04,1.5,2.34,1.66,3.79c0.07,0.67,0.05,1.36-0.1,2.07 c0.64,0.58,1.18,1.22,1.58,1.92c0.62,1.07,0.95,2.25,0.92,3.45c-0.04,1.21-0.43,2.42-1.26,3.54c-0.52,0.7-1.2,1.37-2.07,1.96 c0.08,1.85-0.47,3.51-1.35,4.8c-1,1.45-2.45,2.43-3.96,2.7c-0.33,1.29-1.19,2.42-2.29,3.21c-1.4,1-3.22,1.47-4.88,1.01 c-1.23-0.34-2.34-1.15-3.11-2.58c-0.93,1.57-2.21,2.4-3.55,2.68c-1.61,0.33-3.27-0.16-4.53-1.14c-1-0.78-1.76-1.88-2.03-3.12 c-0.53-0.02-1.06-0.13-1.58-0.3c-1.15-0.39-2.25-1.14-3.11-2.14c-0.87-1-1.5-2.26-1.69-3.66c-0.1-0.73-0.09-1.49,0.07-2.27 c-0.56-0.51-1.05-1.09-1.43-1.71c-0.66-1.07-1.02-2.28-1.01-3.51c0.01-1.25,0.41-2.51,1.27-3.69c0.5-0.68,1.16-1.33,2-1.93 c-0.01-0.23-0.01-0.46,0-0.68c0.07-1.82,0.74-3.42,1.72-4.62c1.01-1.24,2.38-2.05,3.77-2.25l0.01,0c0.05-0.2,0.11-0.41,0.18-0.6 c0.45-1.22,1.37-2.26,2.51-2.92c1.14-0.66,2.51-0.96,3.85-0.68C54.25,30.22,55.47,30.99,56.39,32.42L56.39,32.42L56.39,32.42z M66.27,36.58c-0.2,0.67-0.57,1.34-1.12,2c-0.42,0.5-1.17,0.56-1.67,0.14c-0.5-0.42-0.57-1.17-0.14-1.67 c0.89-1.06,0.9-2.17,0.43-3.04c-0.32-0.6-0.86-1.11-1.5-1.43c-0.62-0.31-1.32-0.44-1.98-0.3c-0.88,0.18-1.74,0.87-2.34,2.26 c0.01,0.06,0.01,0.13,0.01,0.19v24.5c0.02,0.06,0.04,0.12,0.05,0.19c0.34,2.07,1.24,3.07,2.25,3.35c0.93,0.26,2-0.04,2.86-0.66 c0.84-0.6,1.44-1.48,1.45-2.41c0.01-1.05-0.76-2.25-2.84-3.3c-0.59-0.3-0.82-1.02-0.52-1.6c0.3-0.59,1.02-0.82,1.6-0.52 c2.29,1.17,3.49,2.6,3.94,4.05c0.74-0.24,1.45-0.8,1.99-1.58c0.68-0.98,1.06-2.3,0.88-3.78c-0.11-0.51,0.11-1.05,0.59-1.32 c0.9-0.52,1.56-1.11,2.01-1.72c0.51-0.69,0.76-1.42,0.78-2.14c0.02-0.73-0.19-1.46-0.59-2.14c-0.36-0.62-0.88-1.2-1.53-1.69 c-0.45-0.3-0.67-0.88-0.48-1.42c0.22-0.65,0.28-1.27,0.21-1.86c-0.1-0.93-0.51-1.78-1.09-2.46c-0.58-0.69-1.32-1.2-2.08-1.46 C67.03,36.61,66.63,36.55,66.27,36.58L66.27,36.58L66.27,36.58z M46.53,58.45c0.47-1.49,1.72-2.97,4.08-4.18 c0.59-0.3,1.31-0.07,1.6,0.52c0.3,0.59,0.07,1.31-0.52,1.61c-2.18,1.11-3.01,2.39-3,3.51c0,0.87,0.5,1.69,1.22,2.25 c0.73,0.57,1.68,0.86,2.57,0.68c1.11-0.23,2.19-1.26,2.74-3.5V35.76c-0.56-2.23-1.63-3.25-2.74-3.48 c-0.73-0.15-1.51,0.02-2.17,0.41c-0.67,0.39-1.21,0.99-1.47,1.68c-0.34,0.92-0.14,2.06,1.01,3.12c0.48,0.44,0.51,1.19,0.07,1.67 c-0.44,0.48-1.19,0.51-1.67,0.07c-0.9-0.83-1.45-1.71-1.73-2.59c-0.71,0.17-1.41,0.64-1.97,1.32c-0.66,0.81-1.11,1.89-1.16,3.14 c-0.01,0.33,0,0.68,0.05,1.04h0c0.06,0.47-0.14,0.95-0.57,1.22c-0.86,0.53-1.5,1.12-1.95,1.72c-0.54,0.74-0.79,1.51-0.8,2.26 c-0.01,0.76,0.22,1.51,0.64,2.19c0.35,0.57,0.84,1.1,1.43,1.54c0.44,0.3,0.65,0.88,0.47,1.41c-0.23,0.69-0.29,1.36-0.2,1.99 c0.13,0.9,0.54,1.72,1.12,2.38c0.57,0.66,1.3,1.16,2.04,1.41C45.94,58.38,46.24,58.44,46.53,58.45L46.53,58.45L46.53,58.45z M46.81,41.7c0.47-0.46,1.22-0.45,1.68,0.01c0.46,0.47,0.45,1.22-0.01,1.68c-1.02,1-1.55,2.29-1.6,3.62 c-0.06,1.36,0.39,2.76,1.32,3.91c0.41,0.51,0.33,1.26-0.18,1.67c-0.51,0.41-1.26,0.33-1.67-0.18c-1.3-1.61-1.92-3.57-1.84-5.49 C44.57,45,45.34,43.14,46.81,41.7L46.81,41.7L46.81,41.7z M63.65,42.84c-0.53-0.39-0.65-1.13-0.27-1.66 c0.39-0.53,1.13-0.65,1.66-0.26c0.24,0.17,0.46,0.35,0.67,0.54c1.55,1.4,2.39,3.24,2.55,5.14c0.15,1.89-0.37,3.84-1.56,5.47 c-0.17,0.24-0.36,0.47-0.57,0.7c-0.44,0.49-1.19,0.53-1.68,0.09c-0.49-0.44-0.53-1.19-0.09-1.68c0.15-0.16,0.28-0.33,0.41-0.5 c0.85-1.17,1.22-2.55,1.12-3.89c-0.11-1.32-0.69-2.59-1.77-3.56C63.97,43.09,63.82,42.96,63.65,42.84L63.65,42.84L63.65,42.84z M39.66,21.66c-0.59-1.01-0.24-2.3,0.77-2.89c1.01-0.59,2.3-0.24,2.89,0.77l2.72,4.7c0.59,1.01,0.24,2.3-0.77,2.89 c-1.01,0.59-2.3,0.24-2.89-0.77L39.66,21.66L39.66,21.66z M54.87,16.68c0-1.17,0.95-2.12,2.12-2.12c1.17,0,2.12,0.95,2.12,2.12 v5.43c0,1.17-0.95,2.12-2.12,2.12c-1.17,0-2.12-0.95-2.12-2.12V16.68L54.87,16.68z M70.54,19.98c0.58-1.01,1.87-1.36,2.88-0.78 c1.01,0.58,1.36,1.87,0.78,2.88l-2.72,4.7c-1.38,2.4-5.04,0.3-3.66-2.1L70.54,19.98L70.54,19.98L70.54,19.98z M82.46,30.67 c1.01-0.59,2.3-0.24,2.89,0.77c0.59,1.01,0.24,2.3-0.77,2.89l-4.7,2.72c-1.01,0.59-2.3,0.24-2.89-0.77 c-0.59-1.01-0.24-2.3,0.77-2.89L82.46,30.67L82.46,30.67z M87.44,45.88c1.17,0,2.12,0.95,2.12,2.12c0,1.17-0.95,2.12-2.12,2.12H82 c-1.17,0-2.12-0.95-2.12-2.12c0-1.17,0.95-2.12,2.12-2.12H87.44L87.44,45.88z M84.13,61.55c1.01,0.58,1.36,1.87,0.78,2.88 c-0.58,1.01-1.87,1.36-2.88,0.78l-4.7-2.72c-1.01-0.58-1.36-1.87-0.78-2.88c0.58-1.01,1.87-1.36,2.88-0.78L84.13,61.55L84.13,61.55 L84.13,61.55z M73.45,73.46c0.59,1.01,0.24,2.3-0.77,2.89c-1.01,0.59-2.3,0.24-2.89-0.77l-2.72-4.7c-0.59-1.01-0.24-2.3,0.77-2.89 c1.01-0.59,2.3-0.24,2.89,0.77L73.45,73.46L73.45,73.46z M58.24,78.44c0,1.17-0.95,2.12-2.12,2.12c-1.17,0-2.12-0.95-2.12-2.12 v-5.43c0-1.17,0.95-2.12,2.12-2.12c1.17,0,2.12,0.95,2.12,2.12V78.44L58.24,78.44z M42.57,75.14c-0.58,1.01-1.87,1.36-2.88,0.78 c-1.01-0.58-1.36-1.87-0.78-2.88l2.72-4.7c0.58-1.01,1.87-1.36,2.88-0.78c1.01,0.58,1.36,1.87,0.78,2.88L42.57,75.14L42.57,75.14 L42.57,75.14z M30.65,64.45c-1.01,0.59-2.3,0.24-2.89-0.77c-0.59-1.01-0.24-2.3,0.77-2.89l4.7-2.72c1.01-0.59,2.3-0.24,2.89,0.77 c0.59,1.01,0.24,2.3-0.77,2.89L30.65,64.45L30.65,64.45z M25.67,49.24c-1.17,0-2.12-0.95-2.12-2.12c0-1.17,0.95-2.12,2.12-2.12 h5.43c1.17,0,2.12,0.95,2.12,2.12c0,1.17-0.95,2.12-2.12,2.12H25.67L25.67,49.24z M28.98,33.57c-1.01-0.58-1.36-1.87-0.78-2.88 c0.58-1.01,1.87-1.36,2.88-0.78l4.7,2.72c1.01,0.58,1.36,1.87,0.78,2.88c-0.58,1.01-1.87,1.36-2.88,0.78L28.98,33.57L28.98,33.57 L28.98,33.57z"/></g></svg>