<?xml version="1.0" encoding="utf-8"?>
<!-- Generator: Adobe Illustrator 24.2.1, SVG Export Plug-In . SVG Version: 6.00 Build 0)  -->
<svg version="1.1" id="Layer_1" xmlns="http://www.w3.org/2000/svg" xmlns:xlink="http://www.w3.org/1999/xlink" x="0px" y="0px"
	 width="1000px" height="1000px" viewBox="0 0 1000 1000" style="enable-background:new 0 0 1000 1000;" xml:space="preserve">
<g>
	<path d="M284.4,274.6c27.8,0.1,155.4,108.8,155.4,108.8C334.9,262.6,246.2,242.9,246.2,242.9l35.5,69.8
		C281.7,312.7,273.8,274.6,284.4,274.6z"/>
	<path d="M295.7,238.3c19.7-19.6,186.8-32.9,186.8-32.9c-159.6-11.3-236.2,37.4-236.2,37.4l74.5,24.3
		C320.7,267.2,288.1,245.8,295.7,238.3z"/>
	<path d="M278,204.7c0.1-27.8,108.8-155.4,108.8-155.4C266,154.2,246.2,242.9,246.2,242.9l69.8-35.5
		C316.1,207.4,277.9,215.3,278,204.7z"/>
	<path d="M241.7,193.4C222.1,173.7,208.8,6.6,208.8,6.6c-11.3,159.6,37.4,236.2,37.4,236.2l24.3-74.5
		C270.5,168.4,249.2,201,241.7,193.4z"/>
	<path d="M208.1,211.1C180.3,211,52.7,102.3,52.7,102.3c104.9,120.8,193.5,140.6,193.5,140.6L210.8,173
		C210.8,173,218.7,211.1,208.1,211.1z"/>
	<path d="M196.8,247.4C177.1,267,10,280.3,10,280.3c159.6,11.3,236.2-37.4,236.2-37.4l-74.5-24.3
		C171.8,218.6,204.3,239.9,196.8,247.4z"/>
	<path d="M214.5,281c-0.1,27.8-108.8,155.4-108.8,155.4c120.8-104.9,140.6-193.5,140.6-193.5l-69.8,35.5
		C176.4,278.3,214.5,270.4,214.5,281z"/>
	<path d="M250.8,292.3c19.6,19.7,32.9,186.8,32.9,186.8c11.3-159.6-37.4-236.2-37.4-236.2l-24.3,74.5
		C221.9,317.3,243.3,284.8,250.8,292.3z"/>
</g>
</svg>
