<svg id="Layer_1" data-name="Layer 1" xmlns="http://www.w3.org/2000/svg" viewBox="0 0 117.23 122.88"><defs><style>.cls-1{fill-rule:evenodd;}</style></defs><title>relax</title><path class="cls-1" d="M117.23,22.21C115.9,37.52,106,46.75,89.45,49.46c.55-19,13.2-24.38,27.78-27.25ZM32.06,60.45C28,58.31,25.8,57.94,21.68,60.4a1.88,1.88,0,0,1-1.94-3.23c4.72-2.78,9.24-2.51,14-.06a1.88,1.88,0,0,1-1.71,3.34Zm7.77,52.35c0,.54,0,1,0,1.58a31.61,31.61,0,0,1-1,6.91,2.22,2.22,0,0,1-1,1.3,2.11,2.11,0,0,1-1.62.22,2.24,2.24,0,0,1-1.3-1,2.11,2.11,0,0,1-.22-1.62h0a24.11,24.11,0,0,0,.88-5.47l0-.62c-.92.26-1.84.48-2.74.67-5.47,1.25-13.33,2.4-18.56-.09a9.31,9.31,0,0,1-2.64-1.84,7.71,7.71,0,0,1-1.82-2.9,9,9,0,0,1-.43-3.59,14.17,14.17,0,0,1,.57-3.06,21.71,21.71,0,0,1,1.25-3.23c-.24-1.23-.48-2.49-.62-3.74-.36-2.68-.61-6.29-.68-9-.05-1.37-.06-2.76-.08-4.13v-.38c-1.34-.08-2.76-.12-4.08-.24a6.38,6.38,0,0,1-1.61-.28,5.47,5.47,0,0,1-1.47-.68,7.1,7.1,0,0,1-1.15-1,6.16,6.16,0,0,1-1.35-2.7A6.78,6.78,0,0,1,0,76.36a9,9,0,0,1,.44-2.5,11.89,11.89,0,0,1,1.2-2.47L6.21,62a26.11,26.11,0,0,0,1.94-4.57c.4-1.56.09-5.83.15-7.46a30.26,30.26,0,0,1,2.35-11.4l-8.07-3.5a2.12,2.12,0,0,1-1.14-1.18,2.07,2.07,0,0,1,0-1.62C5.35,23.57,22.21,10.05,30.85,5.72A49.93,49.93,0,0,1,63.37.91l1.35.29c.43.09.88.22,1.34.33a.42.42,0,0,1,.31.39V5.5a.41.41,0,0,1-.4.4l-.14,0-1.62-.42c-.55-.13-1.11-.25-1.65-.35A45.64,45.64,0,0,0,33.25,9.32c-8.9,4.37-17.92,11.77-26.51,22.93,2.53,1.12,5.55,2.24,8,3.49a17,17,0,0,0,8.46.28A84.34,84.34,0,0,0,33,33.45c2.43-.73,4.79-1.46,7.05-2a28.08,28.08,0,0,1,6.52-.89,1.45,1.45,0,0,1,.41,0,2,2,0,0,1,.41.09,2.13,2.13,0,0,1,1.35,2.69A26.53,26.53,0,0,0,47.18,42a14.3,14.3,0,0,0,1.44,6.4,16.39,16.39,0,0,0,3.89,4.95,30,30,0,0,0,5.84,4,2.11,2.11,0,0,1,1,1.28A2.14,2.14,0,0,1,56.31,61a35.29,35.29,0,0,1-6.81-4.69,20.19,20.19,0,0,1-4.72-6.1,18.81,18.81,0,0,1-1.85-7A26.89,26.89,0,0,1,43.78,35a40.16,40.16,0,0,0-4.27.92c-1.73.47-3.52,1-5.33,1.56A88.86,88.86,0,0,1,24,40.18a22.54,22.54,0,0,1-9.4,0,25.91,25.91,0,0,0-2.07,10c-.07,2.12.29,6.23-.2,8.17A25.29,25.29,0,0,1,10,63.92L5.39,73.47l-.1.16a7.17,7.17,0,0,0-.75,1.49,4,4,0,0,0-.27,1.33,2.78,2.78,0,0,0,.05.58,2.08,2.08,0,0,0,.16.48,1.4,1.4,0,0,0,.22.32v0a1.49,1.49,0,0,0,.27.23,1.66,1.66,0,0,0,.4.2,2.17,2.17,0,0,0,.51.08c1.68,0,3.68.21,5.4.31l.24,0,.33,0c1.58,0,3.51.26,5.11.41a2.19,2.19,0,0,1,1.46.75,2.14,2.14,0,0,1-1.8,3.52l-2.54-.16v.07c0,1.24,0,2.47.07,3.7s.09,2.28.19,3.45c4.74,2.22,7.56-.25,9,.33a2.12,2.12,0,0,1,1.18,1.14h0a2,2,0,0,1,0,1.61,2.11,2.11,0,0,1-1.14,1.19h0a12,12,0,0,1-8.69.42l.09.76c.16,1.37.45,2.72.72,4.07a3.52,3.52,0,0,1,0,.8,1.84,1.84,0,0,1-.27.73,20,20,0,0,0-1.17,2.82,10.71,10.71,0,0,0-.48,2.37,5.21,5.21,0,0,0,.21,1.87,3.24,3.24,0,0,0,.83,1.38,5.51,5.51,0,0,0,1.57,1c4.87,2.2,13.71.29,18.65-1,4.66-1.3,10-3.24,13.79-6.27a9.69,9.69,0,0,0,2.42-3.14v0c1.66-3.25,2.66-7.45,4.32-10.91a13.12,13.12,0,0,1,3.25-4.65,2,2,0,0,1,1.57-.41,2.1,2.1,0,0,1,1.43.82,2.13,2.13,0,0,1-.4,3,10.1,10.1,0,0,0-2.2,3.46c-1.53,3.43-2.64,7.8-4.34,11-2.58,4.84-7.81,7.39-12.72,9.31-.39.16-.82.3-1.24.47l-.93.32Zm66.82-58.75c.23,8.55-1.83,15.61-6.71,23.6C95.52,84.87,88.8,91.54,79.35,97.07a2.81,2.81,0,0,1-.39.19H78.9q0,1.88.12,3.72c.08,1.31.21,2.61.36,3.9a60.39,60.39,0,0,0,1.32,7.3A59.68,59.68,0,0,0,82.83,119a2.13,2.13,0,0,1-.06,1.63A2.14,2.14,0,0,1,80,121.72a2.1,2.1,0,0,1-1.12-1.2,65.94,65.94,0,0,1-3.7-15.13,70.79,70.79,0,0,1-.51-8.24,80.33,80.33,0,0,1,.43-8.78,2.1,2.1,0,0,1,.77-1.43,2.16,2.16,0,0,1,1.56-.48h0a2.15,2.15,0,0,1,1.9,2.34c-.06.69-.12,1.4-.19,2.13L79,92.26A52,52,0,0,0,96.5,75c4.28-7.2,6.09-13.35,5.87-21a.41.41,0,0,1,.39-.42h3.46a.41.41,0,0,1,.41.41l0,0ZM68.91,66.16a2.12,2.12,0,0,1-1.7,2.47,2.11,2.11,0,0,1-1.6-.34,2.17,2.17,0,0,1-.88-1.36,9.74,9.74,0,0,1-.13-1.76,7.11,7.11,0,0,1,.28-1.69,7.73,7.73,0,0,1,.94-2,7.59,7.59,0,0,1,1.52-1.73,8.1,8.1,0,0,1,1.86-1.2,8.21,8.21,0,0,1,2.12-.68,7.73,7.73,0,0,1,1.92-.13,8.27,8.27,0,0,1,1.89.3,8.6,8.6,0,0,1,3.79,2,5.16,5.16,0,0,1,1.49,3.06,7.54,7.54,0,0,1-.27,3.06,18.42,18.42,0,0,1-1.24,3.16c-.44.93-1.52,3.17-2.91,5.73a57.1,57.1,0,0,1-4.78,7.62c-2.45,3.15-4.89,5.29-6.88,5s-3.48-3.12-3.84-9.8h0A2.12,2.12,0,0,1,61,76.25l0,0a2.13,2.13,0,0,1,1.45-.67h0a2.23,2.23,0,0,1,1.5.56,2.14,2.14,0,0,1,.7,1.48v0c.13,2.58.55,3.7,1.08,3.89s1.21-.48,2-1.49a54.54,54.54,0,0,0,4.45-7.1c1.3-2.42,2.33-4.55,2.76-5.45a16.17,16.17,0,0,0,.9-2.19,4.07,4.07,0,0,0,.24-1.62,1.19,1.19,0,0,0-.5-.76A4.93,4.93,0,0,0,74,62.13,4.53,4.53,0,0,0,73,62a4.35,4.35,0,0,0-1,.06,4.11,4.11,0,0,0-1.06.34,5.11,5.11,0,0,0-.94.59,4.08,4.08,0,0,0-.68.77,2.7,2.7,0,0,0-.4.9,3.09,3.09,0,0,0-.12.75,2.3,2.3,0,0,0,0,.78Zm8.24-41.34C78.24,16.08,79.71,9.48,88.4,3.75c6.22,4.92,9.51,7.88,11,21.17-4.59,1.1-8.67,6-11.1,13.6C86,31.09,82.24,26.6,77.15,24.82Zm25.4-1L100.88,16c2.82-2.42,7.73-3.74,12.55-5a68.74,68.74,0,0,1-.63,9.2,31,31,0,0,0-10.25,3.66Zm-28.44,0L75.79,16c-2.83-2.42-7.74-3.74-12.56-5a68.74,68.74,0,0,0,.63,9.2,31,31,0,0,1,10.25,3.66ZM59.3,22.21c1.34,15.31,11.21,24.54,27.79,27.25-.55-19-13.2-24.38-27.79-27.25Z"/></svg>